<?xml version="1.0" encoding="UTF-8"?>
<!DOCTYPE svg PUBLIC "-//W3C//DTD SVG 1.1//EN" "http://www.w3.org/Graphics/SVG/1.1/DTD/svg11.dtd">
<!-- Creator: CorelDRAW X7 -->
<svg xmlns="http://www.w3.org/2000/svg" xml:space="preserve" width="14.3932mm" height="15.4092mm" version="1.1" style="shape-rendering:geometricPrecision; text-rendering:geometricPrecision; image-rendering:optimizeQuality; fill-rule:evenodd; clip-rule:evenodd"
viewBox="0 0 1439 1541"
 xmlns:xlink="http://www.w3.org/1999/xlink">
 <defs>
  <style type="text/css">
   <![CDATA[
    .fil4 {fill:#115E9C}
    .fil1 {fill:#4A2015}
    .fil0 {fill:#68B1E6}
    .fil2 {fill:#9C5522}
    .fil3 {fill:#ADD3F0}
    .fil6 {fill:#009B4C;fill-rule:nonzero}
    .fil5 {fill:#E62129;fill-rule:nonzero}
    .fil7 {fill:#FFF000;fill-rule:nonzero}
   ]]>
  </style>
 </defs>
 <g id="图层_x0020_1">
  <metadata id="CorelCorpID_0Corel-Layer"/>
  <g id="_2595484519648">
   <path class="fil0" d="M123 471l1193 0c68,0 123,55 123,123l0 670c0,68 -55,123 -123,123l-1193 0c-68,0 -123,-55 -123,-123l0 -670c0,-68 55,-123 123,-123z"/>
   <g>
    <path class="fil1" d="M986 248l0 -33c0,-18 14,-33 33,-33 18,0 33,15 33,33l0 33 17 0c8,0 16,8 16,16 0,10 -8,17 -16,17l-17 0 0 17 17 0c8,0 16,7 16,16 0,10 -8,17 -16,17l-17 0 0 33 -66 0 0 -33 -17 0c-10,0 -17,-7 -17,-17 0,-9 7,-16 17,-16l17 0 0 -17 -17 0c-10,0 -17,-7 -17,-17 0,-8 7,-16 17,-16l17 0 0 0z"/>
    <path class="fil1" d="M787 248l0 -33c0,-18 14,-33 33,-33 18,0 33,15 33,33l0 33 16 0c9,0 17,8 17,16 0,10 -8,17 -17,17l-16 0 0 17 16 0c9,0 17,7 17,16 0,10 -8,17 -17,17l-16 0 0 33 -66 0 0 -33 -17 0c-9,0 -17,-7 -17,-17 0,-9 8,-16 17,-16l17 0 0 -17 -17 0c-9,0 -17,-7 -17,-17 0,-8 8,-16 17,-16l17 0 0 0z"/>
    <path class="fil1" d="M587 248l0 -33c0,-18 15,-33 34,-33 18,0 33,15 33,33l0 33 16 0c9,0 17,8 17,16 0,10 -8,17 -17,17l-16 0 0 17 16 0c9,0 17,7 17,16 0,10 -8,17 -17,17l-16 0 0 33 -67 0 0 -33 -16 0c-9,0 -17,-7 -17,-17 0,-9 8,-16 17,-16l16 0 0 -17 -16 0c-9,0 -17,-7 -17,-17 0,-8 8,-16 17,-16l16 0 0 0z"/>
   </g>
   <g>
    <polygon class="fil2" points="936,182 1019,182 1019,364 936,364 "/>
    <polygon class="fil2" points="737,182 820,182 820,364 737,364 "/>
    <polygon class="fil2" points="538,182 621,182 621,364 538,364 "/>
   </g>
   <path class="fil0" d="M256 1475l132 0 0 50c0,9 -7,17 -16,17l-100 0c-9,0 -16,-8 -16,-17l0 -50zm796 0l133 0 0 50c0,9 -8,17 -17,17l-99 0c-10,0 -17,-8 -17,-17l0 -50z"/>
   <g>
    <path class="fil0" d="M254 99c11,0 23,4 32,9 9,7 13,15 13,24l0 232 -90 0 0 -232c0,-9 5,-17 13,-24 8,-5 20,-9 32,-9l0 0z"/>
    <circle class="fil0" cx="251" cy="154" r="155"/>
   </g>
   <path class="fil3" d="M203 363l1041 0c40,0 72,32 72,72l0 982c0,40 -32,72 -72,72l-1041 0c-40,0 -72,-32 -72,-72l0 -982c0,-40 32,-72 72,-72z"/>
   <g>
    <path class="fil4" d="M322 480c19,0 33,16 33,33l0 763c0,19 -14,34 -33,34 -19,0 -33,-15 -33,-34l0 -763c0,-17 14,-33 33,-33z"/>
    <path class="fil4" d="M521 480c19,0 33,16 33,33l0 763c0,19 -14,34 -33,34 -18,0 -33,-15 -33,-34l0 -763c0,-17 15,-33 33,-33z"/>
    <path class="fil4" d="M720 480c9,0 18,4 24,10 5,7 9,15 9,23l0 763c0,19 -14,34 -33,34 -18,0 -33,-15 -33,-34l0 -763c0,-17 15,-33 33,-33z"/>
    <path class="fil4" d="M919 480c9,0 17,4 24,10 5,7 9,15 9,23l0 763c0,19 -14,34 -33,34 -18,0 -33,-15 -33,-34l0 -763c0,-8 3,-16 10,-23 6,-6 14,-10 23,-10z"/>
    <path class="fil4" d="M1118 480c9,0 17,4 24,10 6,7 9,15 9,23l0 763c0,19 -14,34 -33,34 -18,0 -33,-15 -33,-34l0 -763c0,-8 3,-16 10,-23 6,-6 14,-10 23,-10z"/>
   </g>
   <g>
    <polygon class="fil0" points="322,480 372,480 372,1310 322,1310 "/>
    <polygon class="fil0" points="521,480 571,480 571,1310 521,1310 "/>
    <polygon class="fil0" points="720,480 770,480 770,1310 720,1310 "/>
    <polygon class="fil0" points="919,480 969,480 969,1310 919,1310 "/>
    <polygon class="fil0" points="1118,480 1168,480 1168,1310 1118,1310 "/>
   </g>
   <g>
    <polygon class="fil5" points="569,182 569,134 600,134 600,182 "/>
    <polygon class="fil6" points="763,182 763,134 794,134 794,182 "/>
    <polygon class="fil7" points="963,182 963,134 995,134 995,182 "/>
   </g>
  </g>
 </g>
</svg>
