<?xml version="1.0" encoding="UTF-8"?>
<!DOCTYPE svg PUBLIC "-//W3C//DTD SVG 1.1//EN" "http://www.w3.org/Graphics/SVG/1.1/DTD/svg11.dtd">
<!-- Creator: CorelDRAW X7 -->
<svg xmlns="http://www.w3.org/2000/svg" xml:space="preserve" width="7.4508mm" height="16.9334mm" version="1.1" style="shape-rendering:geometricPrecision; text-rendering:geometricPrecision; image-rendering:optimizeQuality; fill-rule:evenodd; clip-rule:evenodd"
viewBox="0 0 745 1693"
 xmlns:xlink="http://www.w3.org/1999/xlink">
 <defs>
  <style type="text/css">
   <![CDATA[
    .fil5 {fill:aqua}
    .fil6 {fill:#115E9C}
    .fil8 {fill:#348DD1}
    .fil1 {fill:#68B1E6}
    .fil2 {fill:#96D2FF}
    .fil0 {fill:#BFF4FF}
    .fil7 {fill:#BFF4FF}
    .fil3 {fill:#E62129}
    .fil4 {fill:#FFF000}
   ]]>
  </style>
 </defs>
 <g id="图层_x0020_1">
  <metadata id="CorelCorpID_0Corel-Layer"/>
  <g id="_2595521051856">
   <g>
    <rect class="fil0" x="146" y="65" width="67.7733" height="62.0134"/>
    <rect class="fil0" x="276" y="65" width="67.7733" height="62.0134"/>
    <rect class="fil0" x="406" y="65" width="67.7733" height="62.0134"/>
    <rect class="fil0" x="535" y="65" width="67.7733" height="62.0134"/>
    <rect class="fil1" width="745" height="1693"/>
    <rect class="fil2" x="79" width="586" height="1693"/>
    <path class="fil3" d="M147 297c0,5 3,10 8,14 5,3 11,3 16,0 5,-4 8,-9 8,-14 0,-6 -3,-12 -8,-14 -5,-3 -11,-3 -16,0 -5,2 -8,8 -8,14z"/>
    <path class="fil4" d="M229 297c0,5 4,10 8,14 6,3 12,3 16,0 6,-4 9,-9 9,-14 0,-6 -3,-12 -9,-14 -4,-3 -10,-3 -16,0 -4,2 -8,8 -8,14z"/>
    <path class="fil5" d="M311 297c0,5 3,10 8,14 5,3 12,3 17,0 4,-4 8,-9 8,-14 0,-6 -4,-12 -8,-14 -5,-3 -12,-3 -17,0 -5,2 -8,8 -8,14z"/>
    <path class="fil6" d="M403 297c0,6 4,10 8,14 6,3 12,3 17,0 5,-4 8,-8 8,-14 0,-6 -3,-12 -8,-14 -5,-3 -11,-3 -17,0 -4,2 -8,8 -8,14z"/>
    <path class="fil6" d="M502 316c-11,0 -19,-9 -19,-19 0,-11 9,-19 19,-19 11,0 19,8 19,19 0,10 -8,19 -19,19zm0 -33c-7,0 -13,6 -13,14 0,7 6,13 13,13 8,0 14,-6 14,-13 0,-8 -6,-14 -14,-14zm82 33c-10,0 -19,-9 -19,-19 0,-11 9,-19 19,-19 11,0 19,8 19,19 0,10 -8,19 -19,19zm0 -33c-7,0 -13,6 -13,14 0,7 6,13 13,13 8,0 14,-6 14,-13 0,-8 -6,-14 -14,-14z"/>
    <polygon class="fil1" points="146,509 311,509 311,385 146,385 "/>
    <polygon class="fil1" points="437,509 603,509 603,385 437,385 "/>
    <rect class="fil0" x="146" y="65" width="67.7733" height="62.0134"/>
    <rect class="fil0" x="276" y="65" width="67.7733" height="62.0134"/>
    <rect class="fil0" x="406" y="65" width="67.7733" height="62.0134"/>
    <rect class="fil0" x="535" y="65" width="67.7733" height="62.0134"/>
    <rect class="fil0" x="146" y="161" width="67.7733" height="62.0134"/>
    <rect class="fil0" x="276" y="161" width="67.7733" height="62.0134"/>
    <rect class="fil0" x="406" y="161" width="67.7733" height="62.0134"/>
    <rect class="fil0" x="535" y="161" width="67.7733" height="62.0134"/>
    <polygon class="fil0" points="146,509 311,509 311,542 146,542 "/>
    <polygon class="fil0" points="437,509 603,509 603,542 437,542 "/>
    <g>
     <rect class="fil7" x="146" y="653" width="457.141" height="70.0844"/>
     <polygon class="fil2" points="146,685 603,685 603,690 146,690 "/>
     <polygon class="fil2" points="185,653 185,723 177,723 177,653 "/>
     <polygon class="fil2" points="223,653 223,723 216,723 216,653 "/>
     <polygon class="fil2" points="262,653 262,723 255,723 255,653 "/>
     <polygon class="fil2" points="301,653 301,723 293,723 293,653 "/>
     <polygon class="fil2" points="339,653 339,723 332,723 332,653 "/>
     <polygon class="fil2" points="378,653 378,723 371,723 371,653 "/>
     <polygon class="fil2" points="417,653 417,723 410,723 410,653 "/>
     <polygon class="fil2" points="456,653 456,723 448,723 448,653 "/>
     <polygon class="fil2" points="494,653 494,723 487,723 487,653 "/>
     <polygon class="fil2" points="533,653 533,723 526,723 526,653 "/>
     <polygon class="fil2" points="572,653 572,723 564,723 564,653 "/>
    </g>
    <g>
     <rect class="fil7" x="146" y="782" width="457.141" height="70.0844"/>
     <polygon class="fil2" points="146,814 603,814 603,819 146,819 "/>
     <polygon class="fil2" points="185,782 185,852 177,852 177,782 "/>
     <polygon class="fil2" points="223,782 223,852 216,852 216,782 "/>
     <polygon class="fil2" points="262,782 262,852 255,852 255,782 "/>
     <polygon class="fil2" points="301,782 301,852 293,852 293,782 "/>
     <polygon class="fil2" points="339,782 339,852 332,852 332,782 "/>
     <polygon class="fil2" points="378,782 378,852 371,852 371,782 "/>
     <polygon class="fil2" points="417,782 417,852 410,852 410,782 "/>
     <polygon class="fil2" points="456,782 456,852 448,852 448,782 "/>
     <polygon class="fil2" points="494,782 494,852 487,852 487,782 "/>
     <polygon class="fil2" points="533,782 533,852 526,852 526,782 "/>
     <polygon class="fil2" points="572,782 572,852 564,852 564,782 "/>
    </g>
    <g>
     <rect class="fil7" x="146" y="911" width="457.141" height="70.0844"/>
     <polygon class="fil2" points="146,944 603,944 603,949 146,949 "/>
     <polygon class="fil2" points="185,911 185,981 177,981 177,911 "/>
     <polygon class="fil2" points="223,911 223,981 216,981 216,911 "/>
     <polygon class="fil2" points="262,911 262,981 255,981 255,911 "/>
     <polygon class="fil2" points="301,911 301,981 293,981 293,911 "/>
     <polygon class="fil2" points="339,911 339,981 332,981 332,911 "/>
     <polygon class="fil2" points="378,911 378,981 371,981 371,911 "/>
     <polygon class="fil2" points="417,911 417,981 410,981 410,911 "/>
     <polygon class="fil2" points="456,911 456,981 448,981 448,911 "/>
     <polygon class="fil2" points="494,911 494,981 487,981 487,911 "/>
     <polygon class="fil2" points="533,911 533,981 526,981 526,911 "/>
     <polygon class="fil2" points="572,911 572,981 564,981 564,911 "/>
    </g>
    <g>
     <rect class="fil7" x="146" y="1040" width="457.141" height="70.0844"/>
     <polygon class="fil2" points="146,1073 603,1073 603,1078 146,1078 "/>
     <polygon class="fil2" points="185,1040 185,1110 177,1110 177,1040 "/>
     <polygon class="fil2" points="223,1040 223,1110 216,1110 216,1040 "/>
     <polygon class="fil2" points="262,1040 262,1110 255,1110 255,1040 "/>
     <polygon class="fil2" points="301,1040 301,1110 293,1110 293,1040 "/>
     <polygon class="fil2" points="339,1040 339,1110 332,1110 332,1040 "/>
     <polygon class="fil2" points="378,1040 378,1110 371,1110 371,1040 "/>
     <polygon class="fil2" points="417,1040 417,1110 410,1110 410,1040 "/>
     <polygon class="fil2" points="456,1040 456,1110 448,1110 448,1040 "/>
     <polygon class="fil2" points="494,1040 494,1110 487,1110 487,1040 "/>
     <polygon class="fil2" points="533,1040 533,1110 526,1110 526,1040 "/>
     <polygon class="fil2" points="572,1040 572,1110 564,1110 564,1040 "/>
    </g>
    <g>
     <rect class="fil7" x="146" y="1169" width="457.141" height="70.0844"/>
     <polygon class="fil2" points="146,1202 603,1202 603,1207 146,1207 "/>
     <polygon class="fil2" points="185,1169 185,1240 177,1240 177,1169 "/>
     <polygon class="fil2" points="223,1169 223,1240 216,1240 216,1169 "/>
     <polygon class="fil2" points="262,1169 262,1240 255,1240 255,1169 "/>
     <polygon class="fil2" points="301,1169 301,1240 293,1240 293,1169 "/>
     <polygon class="fil2" points="339,1169 339,1240 332,1240 332,1169 "/>
     <polygon class="fil2" points="378,1169 378,1240 371,1240 371,1169 "/>
     <polygon class="fil2" points="417,1169 417,1240 410,1240 410,1169 "/>
     <polygon class="fil2" points="456,1169 456,1240 448,1240 448,1169 "/>
     <polygon class="fil2" points="494,1169 494,1240 487,1240 487,1169 "/>
     <polygon class="fil2" points="533,1169 533,1240 526,1240 526,1169 "/>
     <polygon class="fil2" points="572,1169 572,1240 564,1240 564,1169 "/>
    </g>
    <g>
     <rect class="fil7" x="146" y="1299" width="457.141" height="70.0844"/>
     <polygon class="fil2" points="146,1331 603,1331 603,1336 146,1336 "/>
     <polygon class="fil2" points="185,1299 185,1369 177,1369 177,1299 "/>
     <polygon class="fil2" points="223,1299 223,1369 216,1369 216,1299 "/>
     <polygon class="fil2" points="262,1299 262,1369 255,1369 255,1299 "/>
     <polygon class="fil2" points="301,1299 301,1369 293,1369 293,1299 "/>
     <polygon class="fil2" points="339,1299 339,1369 332,1369 332,1299 "/>
     <polygon class="fil2" points="378,1299 378,1369 371,1369 371,1299 "/>
     <polygon class="fil2" points="417,1299 417,1369 410,1369 410,1299 "/>
     <polygon class="fil2" points="456,1299 456,1369 448,1369 448,1299 "/>
     <polygon class="fil2" points="494,1299 494,1369 487,1369 487,1299 "/>
     <polygon class="fil2" points="533,1299 533,1369 526,1369 526,1299 "/>
     <polygon class="fil2" points="572,1299 572,1369 564,1369 564,1299 "/>
    </g>
    <g>
     <rect class="fil7" x="146" y="1428" width="457.141" height="70.0844"/>
     <polygon class="fil2" points="146,1460 603,1460 603,1465 146,1465 "/>
     <polygon class="fil2" points="185,1428 185,1498 177,1498 177,1428 "/>
     <polygon class="fil2" points="223,1428 223,1498 216,1498 216,1428 "/>
     <polygon class="fil2" points="262,1428 262,1498 255,1498 255,1428 "/>
     <polygon class="fil2" points="301,1428 301,1498 293,1498 293,1428 "/>
     <polygon class="fil2" points="339,1428 339,1498 332,1498 332,1428 "/>
     <polygon class="fil2" points="378,1428 378,1498 371,1498 371,1428 "/>
     <polygon class="fil2" points="417,1428 417,1498 410,1498 410,1428 "/>
     <polygon class="fil2" points="456,1428 456,1498 448,1498 448,1428 "/>
     <polygon class="fil2" points="494,1428 494,1498 487,1498 487,1428 "/>
     <polygon class="fil2" points="533,1428 533,1498 526,1498 526,1428 "/>
     <polygon class="fil2" points="572,1428 572,1498 564,1498 564,1428 "/>
    </g>
    <g>
     <rect class="fil7" x="146" y="1557" width="457.141" height="70.0844"/>
     <polygon class="fil2" points="146,1589 603,1589 603,1595 146,1595 "/>
     <polygon class="fil2" points="185,1557 185,1627 177,1627 177,1557 "/>
     <polygon class="fil2" points="223,1557 223,1627 216,1627 216,1557 "/>
     <polygon class="fil2" points="262,1557 262,1627 255,1627 255,1557 "/>
     <polygon class="fil2" points="301,1557 301,1627 293,1627 293,1557 "/>
     <polygon class="fil2" points="339,1557 339,1627 332,1627 332,1557 "/>
     <polygon class="fil2" points="378,1557 378,1627 371,1627 371,1557 "/>
     <polygon class="fil2" points="417,1557 417,1627 410,1627 410,1557 "/>
     <polygon class="fil2" points="456,1557 456,1627 448,1627 448,1557 "/>
     <polygon class="fil2" points="494,1557 494,1627 487,1627 487,1557 "/>
     <polygon class="fil2" points="533,1557 533,1627 526,1627 526,1557 "/>
     <polygon class="fil2" points="572,1557 572,1627 564,1627 564,1557 "/>
    </g>
   </g>
   <rect class="fil8" x="63" width="18.3717" height="1690.76"/>
   <rect class="fil8" x="662" width="18.3717" height="1690.76"/>
  </g>
 </g>
</svg>
